<svg xmlns="http://www.w3.org/2000/svg" viewBox="0 0 1024 1024" width="1024" height="1024" role="img" aria-label="Autoresearch app icon">
  <defs>
    <linearGradient id="bg" x1="120" y1="80" x2="900" y2="940" gradientUnits="userSpaceOnUse">
      <stop offset="0" stop-color="#ffffff"/>
      <stop offset="0.55" stop-color="#eefaf7"/>
      <stop offset="1" stop-color="#d9eef4"/>
    </linearGradient>
    <radialGradient id="lift" cx="38%" cy="24%" r="70%">
      <stop offset="0" stop-color="#ffffff" stop-opacity="0.72"/>
      <stop offset="0.48" stop-color="#ffffff" stop-opacity="0.18"/>
      <stop offset="1" stop-color="#49f5d0" stop-opacity="0"/>
    </radialGradient>
    <linearGradient id="loop" x1="250" y1="260" x2="780" y2="760" gradientUnits="userSpaceOnUse">
      <stop offset="0" stop-color="#21d6ad"/>
      <stop offset="0.46" stop-color="#12c4df"/>
      <stop offset="1" stop-color="#246ff2"/>
    </linearGradient>
    <linearGradient id="rimLight" x1="330" y1="390" x2="620" y2="350" gradientUnits="userSpaceOnUse">
      <stop offset="0" stop-color="#ffffff" stop-opacity="0"/>
      <stop offset="0.24" stop-color="#ffffff" stop-opacity="0.48"/>
      <stop offset="0.58" stop-color="#ffffff" stop-opacity="0.28"/>
      <stop offset="1" stop-color="#ffffff" stop-opacity="0"/>
    </linearGradient>
    <filter id="softShadow" x="-18%" y="-18%" width="136%" height="140%" color-interpolation-filters="sRGB">
      <feDropShadow dx="0" dy="18" stdDeviation="24" flood-color="#1b6678" flood-opacity="0.22"/>
    </filter>
    <mask id="upperArcMask" maskUnits="userSpaceOnUse">
      <rect width="1024" height="1024" fill="black"/>
      <path
        d="M270 536c0-136 110-246 246-246 56 0 108 19 149 50"
        fill="none"
        stroke="white"
        stroke-width="82"
        stroke-linecap="round"
      />
    </mask>
  </defs>

  <rect width="1024" height="1024" rx="228" fill="url(#bg)"/>
  <rect width="1024" height="1024" rx="228" fill="url(#lift)"/>

  <g filter="url(#softShadow)">
    <path
      d="M270 536c0-136 110-246 246-246 56 0 108 19 149 50"
      fill="none"
      stroke="url(#loop)"
      stroke-width="82"
      stroke-linecap="round"
    />
    <path
      d="M754 488c0 136-110 246-246 246-56 0-108-19-149-50"
      fill="none"
      stroke="url(#loop)"
      stroke-width="82"
      stroke-linecap="round"
    />
    <path
      d="M692 272l8 142-135-41"
      fill="none"
      stroke="url(#loop)"
      stroke-width="82"
      stroke-linecap="round"
      stroke-linejoin="round"
    />
    <path
      d="M332 752l-8-142 135 41"
      fill="none"
      stroke="url(#loop)"
      stroke-width="82"
      stroke-linecap="round"
      stroke-linejoin="round"
    />
    <path
      d="M334 398c45-45 108-70 176-69 39 1 76 10 109 27"
      fill="none"
      stroke="url(#rimLight)"
      stroke-width="17"
      stroke-linecap="round"
      mask="url(#upperArcMask)"
    />
  </g>
</svg>
