<svg xmlns="http://www.w3.org/2000/svg" viewBox="0 0 1024 1024" width="1024" height="1024" role="img" aria-label="Autoresearch app icon">
  <defs>
    <linearGradient id="bg" x1="120" y1="80" x2="900" y2="940" gradientUnits="userSpaceOnUse">
      <stop offset="0" stop-color="#ffffff"/>
      <stop offset="0.55" stop-color="#eefaf7"/>
      <stop offset="1" stop-color="#d9eef4"/>
    </linearGradient>
    <radialGradient id="lift" cx="38%" cy="24%" r="70%">
      <stop offset="0" stop-color="#ffffff" stop-opacity="0.72"/>
      <stop offset="0.48" stop-color="#ffffff" stop-opacity="0.18"/>
      <stop offset="1" stop-color="#49f5d0" stop-opacity="0"/>
    </radialGradient>
    <linearGradient id="loop" x1="230" y1="260" x2="790" y2="780" gradientUnits="userSpaceOnUse">
      <stop offset="0" stop-color="#13d7b6"/>
      <stop offset="0.45" stop-color="#10bfe9"/>
      <stop offset="1" stop-color="#2778ff"/>
    </linearGradient>
    <filter id="softShadow" x="-18%" y="-18%" width="136%" height="140%" color-interpolation-filters="sRGB">
      <feDropShadow dx="0" dy="18" stdDeviation="24" flood-color="#1b6678" flood-opacity="0.22"/>
    </filter>
  </defs>

  <rect width="1024" height="1024" rx="228" fill="url(#bg)"/>
  <rect width="1024" height="1024" rx="228" fill="url(#lift)"/>

  <g filter="url(#softShadow)">
    <path
      d="M266 535c0-136 110-246 246-246 55 0 106 18 147 48"
      fill="none"
      stroke="url(#loop)"
      stroke-width="76"
      stroke-linecap="round"
    />
    <path
      d="M758 489c0 136-110 246-246 246-55 0-106-18-147-48"
      fill="none"
      stroke="url(#loop)"
      stroke-width="76"
      stroke-linecap="round"
    />
    <path
      d="M690 270l8 138-132-38"
      fill="none"
      stroke="url(#loop)"
      stroke-width="76"
      stroke-linecap="round"
      stroke-linejoin="round"
    />
    <path
      d="M334 754l-8-138 132 38"
      fill="none"
      stroke="url(#loop)"
      stroke-width="76"
      stroke-linecap="round"
      stroke-linejoin="round"
    />
  </g>

  <circle cx="512" cy="512" r="112" fill="#ffffff" opacity="0.96" filter="url(#softShadow)"/>
  <circle cx="512" cy="512" r="44" fill="#0e7f92"/>
</svg>
